<?xml version="1.0" encoding="utf-8"?>
<!-- Generator: Adobe Illustrator 26.0.2, SVG Export Plug-In . SVG Version: 6.00 Build 0)  -->
<svg version="1.1" id="Layer_1" xmlns="http://www.w3.org/2000/svg" xmlns:xlink="http://www.w3.org/1999/xlink" x="0px" y="0px"
	 viewBox="0 0 134.3 46.3" style="enable-background:new 0 0 134.3 46.3;" xml:space="preserve">
<g>
	<path d="M32.3,17.3v-1.2c0-3.1,0.4-6.3,1.6-9c0.7-1.3,1.9-2.4,2.9-2.4c1.4,0,1.7,1.6,1.7,2.6C38.5,10.4,35.6,15.5,32.3,17.3
		 M15.4,37.1c-4.5,0-8.6-2.4-11.1-6c-1.8-2.6-2.9-5.7-2.9-8.7C1.4,15,6.9,7,14,6.2c-0.7,1.8-0.8,3-0.8,4.2c0,5.6,5,10.1,10.9,10.1
		c0.7,0,1.4,0,2.1-0.1c-1,4.7-4.4,8.8-9.6,8.8c-6.3,0-8.7-5.7-7.6-10.8l-0.5-0.1c-0.3,1.1-0.4,2.1-0.4,3.1c0,4.8,3.1,9,8.5,9
		c6,0,10.3-5,11.1-10.2c0.6-0.1,1.1-0.3,1.6-0.4C28.2,27.5,24.5,37.1,15.4,37.1 M15.1,6.1c0.4,0,0.9,0,1.3,0.1
		c7,0.4,10.2,5.7,10.2,11.2c0,0.7-0.1,1.4-0.2,2.1c-0.7,0.1-1.3,0.1-2.1,0.1c-5.7,0-10.1-4.3-10.1-9.3C14.2,8.7,14.5,7.3,15.1,6.1
		 M40,7.5c0-2-1.4-3.5-3.1-3.5c-5.6,0-7.2,10-7.6,14.6l0,0c-0.5,0.2-1.1,0.3-1.6,0.5c0-0.2,0-0.5,0-0.7c0-7.5-4.6-13.1-12.2-13.1
		l0,0c1.6-2.8,4.6-4.6,8.1-4.6c3.1,0,5.4,1.7,7.6,3.9l0.6-0.4C29.4,1.4,26.4,0,23.5,0c-3.5,0-7,1.9-9,5.3c0,0,0,0.1-0.1,0.1
		C6.5,6.1,0,13.7,0,21.5c0,5.5,2.6,11,7.9,14.3c2.4,1.5,5.5,2.3,8.6,2.3c2.9,0,5.8-0.7,8.1-2c5.8-3.5,7.6-9.7,7.7-17.7
		C35.9,16.6,40,11.6,40,7.5 M126.2,26.9c-0.8,2.4-2.4,5.6-3.3,5.6c-0.7,0-0.9-0.6-0.9-1.5c0-1.2,0.4-2.7,0.6-3.3
		c0.9-3,2.4-6.7,3.5-6.7c0.7,0,1,0.9,1,1.7C127.1,24.3,126.6,25.5,126.2,26.9 M84.9,20.8c0.9,0,0.9,1.6,0.9,2.1c0,2.7-2,6.1-4.6,6.1
		C81.5,28.1,83.4,20.8,84.9,20.8 M128.7,32.6c-1.7,0-0.1-3.8,5.6-24h-3l-3.7,12.6c-0.2-0.9-1-1.6-2-1.6c-3.1,0-6.3,6-6.3,10.2
		c0,0.3,0,0.6,0,0.9c-0.9,1.3-2.2,2.1-2.8,2.1c-0.3,0-0.6-0.2-0.6-0.7c0-0.4,0.1-1,0.4-1.8c1.3-4,3.6-9.2-1-10.5
		c0.5-1.3,1.1-3.3-0.3-3.3c-0.8,0-1.8,1.2-1.8,2.3c0,0.6,0.3,1.1,1.1,1.4c-0.5,2-4.2,12.4-6.5,12.5c-0.5,0-0.6-0.6-0.5-1.1
		c0.2-1.3,0.7-2.7,3.2-11.3h-2.9l-0.8,3.1c-0.8,3.1-3,3.5-3.1,3.5c1.1-3.1,1.6-7-0.3-6.5c-1.3,0.6-1.9,2.5-2.2,4.1
		c-0.3,1.7,0.2,2.8,1.3,3.1c-0.9,3-2.8,5.5-3.9,5.5c-0.3,0-0.8,0-0.9-0.4c-0.2-0.4-0.2-0.6-0.2-1.1c0-0.8,1.4-6.1,2.9-11.4
		c1.7-5.7,3.4-11.6,3.4-11.6H101L95.6,28c-0.8,2.4-2,4.7-3,4.7c-0.3,0-0.5-0.2-0.5-0.7c0.1-0.8,0.3-1.7,0.6-2.7l0.9-3.1
		c1-2.8,0.3-5.4-2.1-6.4c1.4-3.7-0.5-4.1-1.6-3c-0.7,0.8-1.3,2.6,0.4,3.4c-2.3,7.5-4.5,12.7-8.2,12.7c-0.8,0-1.4-0.4-1.4-1.6
		c0-0.6,0.2-1.3,0.2-1.7c0.6-0.1,1.1-0.1,1.6-0.3c2.7-0.8,4.5-3.7,4.5-6.3c0-1.9-0.9-3.3-2.4-3.3c-2.7,0-4.9,3.3-5.8,6.3
		c-0.4,1.2-0.6,2.7-0.4,4.1c-0.7,1.4-1.7,2.5-2.5,2.5c-0.3,0-0.5-0.3-0.5-0.6c0-0.4,0.1-0.9,0.2-1.1c1.9-6,2.2-7.4,2.2-8.1
		c0-1.4-1.1-2.6-2.3-2.6c-1.7,0-2.7,1.1-3.4,2.3c-0.2-1.2-1-2.3-2.2-2.3c-1.1,0-2.5,0.9-3.1,2.3c0-0.4,0.1-2,0.1-2H65l-1.1,3.8
		c-0.6,2.2-1.4,4.4-2.5,6.1c-0.7,1.2-1.4,1.9-2,2.2c-0.2,0.1-0.3,0.1-0.5,0.1c-0.3,0-0.5-0.3-0.5-0.6c0-0.4,0.1-0.9,0.2-1.1
		c1.9-6,2.2-7.4,2.2-8.1c0-1.4-1.1-2.6-2.3-2.6c-1.7,0-2.8,1.2-3.4,2.3c-0.2-1.2-1.1-2.3-2.3-2.3c-1.1,0-2.4,0.6-3.1,2.3
		c0-0.4,0.2-2,0.2-2H48l-1.1,3.8c-0.6,2.2-1.4,4.4-2.5,6.1c-0.8,1.3-1.6,2.1-2.1,2.2c-0.6,0.2-0.8-0.5-0.8-0.9
		c0-1.6,1.3-5.2,3.2-11.3H42c0,0-0.3,1-0.8,2.3c-0.9,2.8-1.6,5.5-3.1,7.9c-0.8,1.2-1.5,2-2,2c-0.3,0-0.4-0.2-0.4-0.6
		c0-1.7,1.7-6.2,3.5-11.6h-2.8l-2.8,8.8c-0.3,1-0.5,1.8-0.5,2.7c0,1.5,0.8,2.1,1.8,2.1c1.4,0,2.5-1,3.1-1.8c0.5-0.6,0.7-1,0.7-1
		c0,1.4,0.6,2.7,2.4,2.7c0.3,0,0.6-0.1,0.9-0.2c1.2-0.4,2.2-1.6,2.8-2.5l-0.7,2.6h2.7l1.1-3.9c1.9-6.4,2.9-8.6,4.2-8.6
		c0.3,0,0.5,0.3,0.5,0.8c0,0.8-0.3,2.1-0.8,3.9l-2,7.9h2.7c0.3-1.1,0.6-2.2,0.9-3.4c0.5-1.8,2.2-9,4.3-9.1c0.3,0,0.6,0.4,0.6,0.9
		s-0.3,1.2-1.7,6.4c-0.3,0.9-0.6,1.9-0.6,2.8c0,0.9,0.3,1.8,1.1,2.2c0.3,0.2,0.6,0.2,1.1,0.2s1.1-0.2,1.5-0.4c0,0,0.1,0,0.1-0.1
		c0,0,0,0,0.1,0c0.4-0.2,0.7-0.5,1.1-0.8l0,0c0,0,0.1,0,0.1-0.1c0.1-0.1,0.2-0.2,0.2-0.2l0,0c0.3-0.3,0.5-0.7,0.7-1L61.3,34H64
		l1.1-3.9c1.9-6.4,2.9-8.6,4.2-8.6c0.3,0,0.5,0.3,0.5,0.8c0,0.8-0.3,2.1-0.8,3.9L66.8,34h2.7c0.3-1.1,0.6-2.2,0.9-3.4
		c0.5-1.8,2.2-9,4.3-9.1c0.3,0,0.6,0.4,0.6,0.9s-0.3,1.2-1.7,6.4c-0.3,0.9-0.6,1.9-0.6,2.8c0,0.9,0.3,1.8,1.1,2.2
		c0.3,0.2,0.6,0.2,1.1,0.2c1.1,0,2.3-0.5,3.6-2.3C79.3,33,80.3,34,82,34c3.8,0,6.3-3.9,9.3-13.3c2.2,2.4-1.5,7.2-1.5,10.5
		c0,1.6,0.8,2.7,2.3,2.7c1.6,0,2.7-1.9,3.3-3.4c0,1.7,0.8,3.4,3,3.4c2.5,0,4.1-3.9,5-6.2c1,0,2-0.6,2.7-1.3c0,0.3-0.6,2.1-1,4
		c-0.4,1.7-0.2,2.4,0.1,2.7c0.3,0.5,0.9,0.8,1.7,0.8c3.2,0,5.2-4.6,6.6-8.2c1.2-3.1,1.7-5.1,1.7-5.1c2.5,2.2-1.4,7.2-1.4,10.5
		c0,1.4,0.8,2.7,2.2,2.7c1.2,0,2.6-1.2,3.5-2.2c0.3,1.3,1.1,2.2,2.4,2.2c2.1,0,3.4-2.9,3.4-2.9c0,1.9,1,2.8,2.4,2.8
		c3.4,0,5.8-6.5,5.8-6.5l-0.9-0.3C131.4,30.3,129.7,32.6,128.7,32.6"/>
	<path d="M108.6,13.5c-0.2,0.9,0.5,1.7,1.4,1.7s1.9-0.6,2-1.7c0-0.3,0-0.6-0.1-0.8c-0.1-0.3-0.3-0.5-0.5-0.6
		c-0.2-0.2-0.6-0.3-0.9-0.3C109.5,11.8,108.7,12.5,108.6,13.5"/>
	<g>
		<path d="M54.3,41c1.7,0,3,1,3,2.7c0,1.8-1.5,2.6-3,2.6s-3-0.8-3-2.6C51.4,42,52.6,41,54.3,41z M54.3,45.8c1.2,0,2.3-0.7,2.3-2.2
			c0-1.1-0.9-2.1-2.3-2.1c-1.5,0-2.3,0.9-2.3,2.1C52,45.1,53.1,45.8,54.3,45.8z"/>
		<path d="M58.8,41.1h2.9c0.8,0,2,0.2,2,1.4c0,1.1-1,1.4-1.6,1.4l1.7,2.2H63l-1.6-2.2h-2v2.2h-0.6V41.1z M59.4,43.4h2.2
			c0.9,0,1.5-0.1,1.5-0.9c0-0.7-0.7-0.9-1.5-0.9h-2.2C59.4,41.6,59.4,43.4,59.4,43.4z"/>
		<path d="M70.6,43.7v2.5h-0.5v-0.7c-0.3,0.4-0.9,0.8-2,0.8c-2,0-2.9-1.2-2.9-2.6c0-1.7,1.2-2.7,2.9-2.7c1.2,0,2.1,0.5,2.5,1.4
			l-0.5,0.3c-0.4-0.9-1.3-1.1-2-1.1c-1.4,0-2.2,0.8-2.2,2.2c0,1.2,0.8,2,2.3,2c0.9,0,1.9-0.4,2-1.5h-2v-0.5h2.4V43.7z"/>
		<path d="M74.3,41.1H75l2.6,5h-0.7l-0.7-1.3h-3.3l-0.7,1.3h-0.7L74.3,41.1z M76,44.3l-1.3-2.7l-1.4,2.7H76z"/>
		<path d="M78.9,41.1h0.9l3.8,4.1v-4.1h0.6v5h-0.6l-4-4.5v4.5H79v-5H78.9z"/>
		<path d="M86,41.1h0.6v5H86V41.1z"/>
		<path d="M93.8,44.8c-0.5,1-1.5,1.5-2.7,1.5c-2,0-2.9-1.2-2.9-2.6c0-1.7,1.2-2.7,2.9-2.7c1.1,0,2.2,0.4,2.6,1.4l-0.5,0.2
			c-0.4-0.8-1.1-1.2-2.1-1.2c-1.4,0-2.3,0.8-2.3,2.2c0,1.2,0.8,2,2.3,2c1,0,1.7-0.4,2.1-1.2L93.8,44.8z"/>
	</g>
</g>
</svg>
